{
	"patcher" : 	{
		"fileversion" : 1,
		"appversion" : 		{
			"major" : 8,
			"minor" : 2,
			"revision" : 1,
			"architecture" : "x64",
			"modernui" : 1
		}
,
		"classnamespace" : "box",
		"rect" : [ 757.0, 133.0, 875.0, 752.0 ],
		"bglocked" : 0,
		"openinpresentation" : 0,
		"default_fontsize" : 12.0,
		"default_fontface" : 0,
		"default_fontname" : "Arial",
		"gridonopen" : 1,
		"gridsize" : [ 15.0, 15.0 ],
		"gridsnaponopen" : 1,
		"objectsnaponopen" : 1,
		"statusbarvisible" : 2,
		"toolbarvisible" : 1,
		"lefttoolbarpinned" : 0,
		"toptoolbarpinned" : 0,
		"righttoolbarpinned" : 0,
		"bottomtoolbarpinned" : 0,
		"toolbars_unpinned_last_save" : 0,
		"tallnewobj" : 0,
		"boxanimatetime" : 200,
		"enablehscroll" : 1,
		"enablevscroll" : 1,
		"devicewidth" : 0.0,
		"description" : "",
		"digest" : "",
		"tags" : "",
		"style" : "",
		"subpatcher_template" : "",
		"assistshowspatchername" : 0,
		"boxes" : [ 			{
				"box" : 				{
					"id" : "obj-8",
					"maxclass" : "message",
					"numinlets" : 2,
					"numoutlets" : 1,
					"outlettype" : [ "" ],
					"patching_rect" : [ 1165.541609161865381, 263.0, 29.5, 22.0 ],
					"text" : "13"
				}

			}
, 			{
				"box" : 				{
					"id" : "obj-9",
					"maxclass" : "message",
					"numinlets" : 2,
					"numoutlets" : 1,
					"outlettype" : [ "" ],
					"patching_rect" : [ 1122.041609161865381, 263.0, 29.5, 22.0 ],
					"text" : "12"
				}

			}
, 			{
				"box" : 				{
					"id" : "obj-10",
					"maxclass" : "message",
					"numinlets" : 2,
					"numoutlets" : 1,
					"outlettype" : [ "" ],
					"patching_rect" : [ 1070.041609161865381, 263.0, 29.5, 22.0 ],
					"text" : "11"
				}

			}
, 			{
				"box" : 				{
					"id" : "obj-11",
					"maxclass" : "message",
					"numinlets" : 2,
					"numoutlets" : 1,
					"outlettype" : [ "" ],
					"patching_rect" : [ 1021.041609161865381, 263.0, 29.5, 22.0 ],
					"text" : "10"
				}

			}
, 			{
				"box" : 				{
					"id" : "obj-12",
					"maxclass" : "message",
					"numinlets" : 2,
					"numoutlets" : 1,
					"outlettype" : [ "" ],
					"patching_rect" : [ 976.541609161865381, 263.0, 29.5, 22.0 ],
					"text" : "9"
				}

			}
, 			{
				"box" : 				{
					"id" : "obj-121",
					"maxclass" : "newobj",
					"numinlets" : 2,
					"numoutlets" : 1,
					"outlettype" : [ "int" ],
					"patching_rect" : [ 475.0, 308.0, 29.5, 22.0 ],
					"text" : "+ 1"
				}

			}
, 			{
				"box" : 				{
					"id" : "obj-120",
					"maxclass" : "newobj",
					"numinlets" : 2,
					"numoutlets" : 1,
					"outlettype" : [ "int" ],
					"patching_rect" : [ 475.0, 279.0, 66.0, 22.0 ],
					"text" : "random 13"
				}

			}
, 			{
				"box" : 				{
					"id" : "obj-119",
					"maxclass" : "newobj",
					"numinlets" : 2,
					"numoutlets" : 1,
					"outlettype" : [ "bang" ],
					"patching_rect" : [ 475.25, 247.0, 76.0, 22.0 ],
					"text" : "qmetro 1500"
				}

			}
, 			{
				"box" : 				{
					"id" : "obj-118",
					"maxclass" : "toggle",
					"numinlets" : 1,
					"numoutlets" : 1,
					"outlettype" : [ "int" ],
					"parameter_enable" : 0,
					"patching_rect" : [ 475.25, 211.0, 24.0, 24.0 ]
				}

			}
, 			{
				"box" : 				{
					"id" : "obj-113",
					"maxclass" : "message",
					"numinlets" : 2,
					"numoutlets" : 1,
					"outlettype" : [ "" ],
					"patching_rect" : [ 919.041609161865381, 263.0, 29.5, 22.0 ],
					"text" : "8"
				}

			}
, 			{
				"box" : 				{
					"id" : "obj-114",
					"maxclass" : "message",
					"numinlets" : 2,
					"numoutlets" : 1,
					"outlettype" : [ "" ],
					"patching_rect" : [ 867.041609161865381, 263.0, 29.5, 22.0 ],
					"text" : "7"
				}

			}
, 			{
				"box" : 				{
					"id" : "obj-115",
					"maxclass" : "message",
					"numinlets" : 2,
					"numoutlets" : 1,
					"outlettype" : [ "" ],
					"patching_rect" : [ 818.041609161865381, 263.0, 29.5, 22.0 ],
					"text" : "6"
				}

			}
, 			{
				"box" : 				{
					"id" : "obj-116",
					"maxclass" : "message",
					"numinlets" : 2,
					"numoutlets" : 1,
					"outlettype" : [ "" ],
					"patching_rect" : [ 773.541609161865381, 263.0, 29.5, 22.0 ],
					"text" : "5"
				}

			}
, 			{
				"box" : 				{
					"id" : "obj-110",
					"maxclass" : "message",
					"numinlets" : 2,
					"numoutlets" : 1,
					"outlettype" : [ "" ],
					"patching_rect" : [ 725.041609161865381, 263.0, 29.5, 22.0 ],
					"text" : "4"
				}

			}
, 			{
				"box" : 				{
					"id" : "obj-111",
					"maxclass" : "message",
					"numinlets" : 2,
					"numoutlets" : 1,
					"outlettype" : [ "" ],
					"patching_rect" : [ 673.041609161865381, 263.0, 29.5, 22.0 ],
					"text" : "3"
				}

			}
, 			{
				"box" : 				{
					"id" : "obj-552",
					"maxclass" : "ezdac~",
					"numinlets" : 2,
					"numoutlets" : 0,
					"patching_rect" : [ 512.208273386047495, 948.056974282014835, 45.0, 45.0 ]
				}

			}
, 			{
				"box" : 				{
					"id" : "obj-817",
					"maxclass" : "newobj",
					"numinlets" : 9,
					"numoutlets" : 0,
					"patching_rect" : [ 512.208273386047495, 904.212842623871438, 125.0, 22.0 ],
					"text" : "dac~ 1 2 3 4 5 6 7 8 9"
				}

			}
, 			{
				"box" : 				{
					"id" : "obj-107",
					"maxclass" : "newobj",
					"numinlets" : 1,
					"numoutlets" : 1,
					"outlettype" : [ "" ],
					"patching_rect" : [ 579.541609161865381, 753.000000357627869, 87.0, 22.0 ],
					"text" : "loadmess - 16."
				}

			}
, 			{
				"box" : 				{
					"id" : "obj-109",
					"lastchannelcount" : 0,
					"maxclass" : "live.gain~",
					"numinlets" : 2,
					"numoutlets" : 5,
					"outlettype" : [ "signal", "signal", "", "float", "list" ],
					"parameter_enable" : 1,
					"patching_rect" : [ 512.208273386047495, 753.000000357627869, 48.0, 136.0 ],
					"saved_attribute_attributes" : 					{
						"valueof" : 						{
							"parameter_longname" : "live.gain~",
							"parameter_mmax" : 6.0,
							"parameter_mmin" : -70.0,
							"parameter_shortname" : "live.gain~",
							"parameter_type" : 0,
							"parameter_unitstyle" : 4
						}

					}
,
					"varname" : "live.gain~"
				}

			}
, 			{
				"box" : 				{
					"id" : "obj-103",
					"maxclass" : "message",
					"numinlets" : 2,
					"numoutlets" : 1,
					"outlettype" : [ "" ],
					"patching_rect" : [ 624.041609161865381, 263.0, 29.5, 22.0 ],
					"text" : "2"
				}

			}
, 			{
				"box" : 				{
					"id" : "obj-101",
					"maxclass" : "message",
					"numinlets" : 2,
					"numoutlets" : 1,
					"outlettype" : [ "" ],
					"patching_rect" : [ 579.541609161865381, 263.0, 29.5, 22.0 ],
					"text" : "1"
				}

			}
, 			{
				"box" : 				{
					"id" : "obj-99",
					"maxclass" : "number",
					"numinlets" : 1,
					"numoutlets" : 2,
					"outlettype" : [ "", "bang" ],
					"parameter_enable" : 0,
					"patching_rect" : [ 603.541609161865381, 319.0, 50.0, 22.0 ]
				}

			}
, 			{
				"box" : 				{
					"basictuning" : 440,
					"clipheight" : 26.0,
					"data" : 					{
						"clips" : [ 							{
								"absolutepath" : "C:/Users/Joshuah/AppData/Roaming/Cycling '74/Max 8/Settings/Cache/Moo sound affect audio.mp3.aif",
								"filename" : "Moo sound affect audio.mp3.aif",
								"filekind" : "audiofile",
								"id" : "u971000651",
								"selection" : [ 0.0, 1.0 ],
								"loop" : 0,
								"content_state" : 								{

								}

							}
, 							{
								"absolutepath" : "C:/Users/Joshuah/AppData/Roaming/Cycling '74/Max 8/Settings/Cache/falcon getting hurt audio.mp3.aif",
								"filename" : "falcon getting hurt audio.mp3.aif",
								"filekind" : "audiofile",
								"id" : "u051000646",
								"selection" : [ 0.0, 1.0 ],
								"loop" : 0,
								"content_state" : 								{

								}

							}
, 							{
								"absolutepath" : "C:/Users/Joshuah/AppData/Roaming/Cycling '74/Max 8/Settings/Cache/fart sounds effect audio.mp3.aif",
								"filename" : "fart sounds effect audio.mp3.aif",
								"filekind" : "audiofile",
								"id" : "u567000641",
								"selection" : [ 0.0, 1.0 ],
								"loop" : 0,
								"content_state" : 								{

								}

							}
, 							{
								"absolutepath" : "C:/Users/Joshuah/AppData/Roaming/Cycling '74/Max 8/Settings/Cache/heavy punch sound effect audio.mp3.aif",
								"filename" : "heavy punch sound effect audio.mp3.aif",
								"filekind" : "audiofile",
								"id" : "u894000636",
								"selection" : [ 0.0, 0.611226611226611 ],
								"loop" : 0,
								"content_state" : 								{

								}

							}
, 							{
								"absolutepath" : "C:/Users/Joshuah/AppData/Roaming/Cycling '74/Max 8/Settings/Cache/CHOMP.mp3.aif",
								"filename" : "CHOMP.mp3.aif",
								"filekind" : "audiofile",
								"id" : "u648000589",
								"selection" : [ 0.0, 1.0 ],
								"loop" : 0,
								"content_state" : 								{

								}

							}
, 							{
								"absolutepath" : "C:/Users/Joshuah/AppData/Roaming/Cycling '74/Max 8/Settings/Cache/TACOBELL.mp3.aif",
								"filename" : "TACOBELL.mp3.aif",
								"filekind" : "audiofile",
								"id" : "u311000596",
								"selection" : [ 0.0, 1.0 ],
								"loop" : 0,
								"content_state" : 								{

								}

							}
, 							{
								"absolutepath" : "C:/Users/Joshuah/AppData/Roaming/Cycling '74/Max 8/Settings/Cache/PUNCH.mp3.aif",
								"filename" : "PUNCH.mp3.aif",
								"filekind" : "audiofile",
								"id" : "u256000595",
								"selection" : [ 0.0, 1.0 ],
								"loop" : 0,
								"content_state" : 								{

								}

							}
, 							{
								"absolutepath" : "C:/Users/Joshuah/AppData/Roaming/Cycling '74/Max 8/Settings/Cache/PARTY.mp3.aif",
								"filename" : "PARTY.mp3.aif",
								"filekind" : "audiofile",
								"id" : "u885000594",
								"selection" : [ 0.0, 1.0 ],
								"loop" : 0,
								"content_state" : 								{

								}

							}
, 							{
								"absolutepath" : "C:/Users/Joshuah/AppData/Roaming/Cycling '74/Max 8/Settings/Cache/MEOW.mp3.aif",
								"filename" : "MEOW.mp3.aif",
								"filekind" : "audiofile",
								"id" : "u100000576",
								"selection" : [ 0.0, 1.0 ],
								"loop" : 0,
								"content_state" : 								{

								}

							}
, 							{
								"absolutepath" : "C:/Users/Joshuah/AppData/Roaming/Cycling '74/Max 8/Settings/Cache/FART.mp3.aif",
								"filename" : "FART.mp3.aif",
								"filekind" : "audiofile",
								"id" : "u620000593",
								"selection" : [ 0.0, 1.0 ],
								"loop" : 0,
								"content_state" : 								{

								}

							}
, 							{
								"absolutepath" : "C:/Users/Joshuah/AppData/Roaming/Cycling '74/Max 8/Settings/Cache/MARIO_JUMP.mp3.aif",
								"filename" : "MARIO_JUMP.mp3.aif",
								"filekind" : "audiofile",
								"id" : "u443000592",
								"selection" : [ 0.0, 1.0 ],
								"loop" : 0,
								"content_state" : 								{

								}

							}
, 							{
								"absolutepath" : "C:/Users/Joshuah/AppData/Roaming/Cycling '74/Max 8/Settings/Cache/BONK.mp3.aif",
								"filename" : "BONK.mp3.aif",
								"filekind" : "audiofile",
								"id" : "u729000591",
								"selection" : [ 0.0, 1.0 ],
								"loop" : 0,
								"content_state" : 								{

								}

							}
, 							{
								"absolutepath" : "C:/Users/Joshuah/AppData/Roaming/Cycling '74/Max 8/Settings/Cache/BARK.mp3.aif",
								"filename" : "BARK.mp3.aif",
								"filekind" : "audiofile",
								"id" : "u092000590",
								"selection" : [ 0.0, 1.0 ],
								"loop" : 0,
								"content_state" : 								{

								}

							}
 ]
					}
,
					"followglobaltempo" : 0,
					"formantcorrection" : 0,
					"id" : "obj-2",
					"maxclass" : "playlist~",
					"mode" : "basic",
					"numinlets" : 1,
					"numoutlets" : 5,
					"originallength" : [ 0.0, "ticks" ],
					"originaltempo" : 120.0,
					"outlettype" : [ "signal", "signal", "signal", "", "dictionary" ],
					"parameter_enable" : 0,
					"patching_rect" : [ 475.0, 360.0, 536.0, 351.0 ],
					"pitchcorrection" : 0,
					"quality" : "basic",
					"timestretch" : [ 0 ]
				}

			}
 ],
		"lines" : [ 			{
				"patchline" : 				{
					"destination" : [ "obj-99", 0 ],
					"source" : [ "obj-10", 0 ]
				}

			}
, 			{
				"patchline" : 				{
					"destination" : [ "obj-99", 0 ],
					"source" : [ "obj-101", 0 ]
				}

			}
, 			{
				"patchline" : 				{
					"destination" : [ "obj-99", 0 ],
					"source" : [ "obj-103", 0 ]
				}

			}
, 			{
				"patchline" : 				{
					"destination" : [ "obj-109", 0 ],
					"source" : [ "obj-107", 0 ]
				}

			}
, 			{
				"patchline" : 				{
					"destination" : [ "obj-817", 1 ],
					"source" : [ "obj-109", 1 ]
				}

			}
, 			{
				"patchline" : 				{
					"destination" : [ "obj-817", 0 ],
					"source" : [ "obj-109", 0 ]
				}

			}
, 			{
				"patchline" : 				{
					"destination" : [ "obj-99", 0 ],
					"source" : [ "obj-11", 0 ]
				}

			}
, 			{
				"patchline" : 				{
					"destination" : [ "obj-99", 0 ],
					"source" : [ "obj-110", 0 ]
				}

			}
, 			{
				"patchline" : 				{
					"destination" : [ "obj-99", 0 ],
					"source" : [ "obj-111", 0 ]
				}

			}
, 			{
				"patchline" : 				{
					"destination" : [ "obj-99", 0 ],
					"source" : [ "obj-113", 0 ]
				}

			}
, 			{
				"patchline" : 				{
					"destination" : [ "obj-99", 0 ],
					"source" : [ "obj-114", 0 ]
				}

			}
, 			{
				"patchline" : 				{
					"destination" : [ "obj-99", 0 ],
					"source" : [ "obj-115", 0 ]
				}

			}
, 			{
				"patchline" : 				{
					"destination" : [ "obj-99", 0 ],
					"source" : [ "obj-116", 0 ]
				}

			}
, 			{
				"patchline" : 				{
					"destination" : [ "obj-119", 0 ],
					"source" : [ "obj-118", 0 ]
				}

			}
, 			{
				"patchline" : 				{
					"destination" : [ "obj-120", 0 ],
					"source" : [ "obj-119", 0 ]
				}

			}
, 			{
				"patchline" : 				{
					"destination" : [ "obj-99", 0 ],
					"source" : [ "obj-12", 0 ]
				}

			}
, 			{
				"patchline" : 				{
					"destination" : [ "obj-121", 0 ],
					"source" : [ "obj-120", 0 ]
				}

			}
, 			{
				"patchline" : 				{
					"destination" : [ "obj-2", 0 ],
					"source" : [ "obj-121", 0 ]
				}

			}
, 			{
				"patchline" : 				{
					"destination" : [ "obj-109", 1 ],
					"order" : 0,
					"source" : [ "obj-2", 0 ]
				}

			}
, 			{
				"patchline" : 				{
					"destination" : [ "obj-109", 0 ],
					"order" : 1,
					"source" : [ "obj-2", 0 ]
				}

			}
, 			{
				"patchline" : 				{
					"destination" : [ "obj-99", 0 ],
					"source" : [ "obj-8", 0 ]
				}

			}
, 			{
				"patchline" : 				{
					"destination" : [ "obj-99", 0 ],
					"source" : [ "obj-9", 0 ]
				}

			}
, 			{
				"patchline" : 				{
					"destination" : [ "obj-2", 0 ],
					"source" : [ "obj-99", 0 ]
				}

			}
 ],
		"parameters" : 		{
			"obj-109" : [ "live.gain~", "live.gain~", 0 ],
			"parameterbanks" : 			{

			}
,
			"inherited_shortname" : 1
		}
,
		"dependency_cache" : [ 			{
				"name" : "Moo sound affect audio.mp3.aif",
				"bootpath" : "~/AppData/Roaming/Cycling '74/Max 8/Settings/Cache",
				"patcherrelativepath" : "../../../../AppData/Roaming/Cycling '74/Max 8/Settings/Cache",
				"type" : "AIFF",
				"implicit" : 1
			}
, 			{
				"name" : "falcon getting hurt audio.mp3.aif",
				"bootpath" : "~/AppData/Roaming/Cycling '74/Max 8/Settings/Cache",
				"patcherrelativepath" : "../../../../AppData/Roaming/Cycling '74/Max 8/Settings/Cache",
				"type" : "AIFF",
				"implicit" : 1
			}
, 			{
				"name" : "fart sounds effect audio.mp3.aif",
				"bootpath" : "~/AppData/Roaming/Cycling '74/Max 8/Settings/Cache",
				"patcherrelativepath" : "../../../../AppData/Roaming/Cycling '74/Max 8/Settings/Cache",
				"type" : "AIFF",
				"implicit" : 1
			}
, 			{
				"name" : "heavy punch sound effect audio.mp3.aif",
				"bootpath" : "~/AppData/Roaming/Cycling '74/Max 8/Settings/Cache",
				"patcherrelativepath" : "../../../../AppData/Roaming/Cycling '74/Max 8/Settings/Cache",
				"type" : "AIFF",
				"implicit" : 1
			}
, 			{
				"name" : "CHOMP.mp3.aif",
				"bootpath" : "~/AppData/Roaming/Cycling '74/Max 8/Settings/Cache",
				"patcherrelativepath" : "../../../../AppData/Roaming/Cycling '74/Max 8/Settings/Cache",
				"type" : "AIFF",
				"implicit" : 1
			}
, 			{
				"name" : "TACOBELL.mp3.aif",
				"bootpath" : "~/AppData/Roaming/Cycling '74/Max 8/Settings/Cache",
				"patcherrelativepath" : "../../../../AppData/Roaming/Cycling '74/Max 8/Settings/Cache",
				"type" : "AIFF",
				"implicit" : 1
			}
, 			{
				"name" : "PUNCH.mp3.aif",
				"bootpath" : "~/AppData/Roaming/Cycling '74/Max 8/Settings/Cache",
				"patcherrelativepath" : "../../../../AppData/Roaming/Cycling '74/Max 8/Settings/Cache",
				"type" : "AIFF",
				"implicit" : 1
			}
, 			{
				"name" : "PARTY.mp3.aif",
				"bootpath" : "~/AppData/Roaming/Cycling '74/Max 8/Settings/Cache",
				"patcherrelativepath" : "../../../../AppData/Roaming/Cycling '74/Max 8/Settings/Cache",
				"type" : "AIFF",
				"implicit" : 1
			}
, 			{
				"name" : "MEOW.mp3.aif",
				"bootpath" : "~/AppData/Roaming/Cycling '74/Max 8/Settings/Cache",
				"patcherrelativepath" : "../../../../AppData/Roaming/Cycling '74/Max 8/Settings/Cache",
				"type" : "AIFF",
				"implicit" : 1
			}
, 			{
				"name" : "FART.mp3.aif",
				"bootpath" : "~/AppData/Roaming/Cycling '74/Max 8/Settings/Cache",
				"patcherrelativepath" : "../../../../AppData/Roaming/Cycling '74/Max 8/Settings/Cache",
				"type" : "AIFF",
				"implicit" : 1
			}
, 			{
				"name" : "MARIO_JUMP.mp3.aif",
				"bootpath" : "~/AppData/Roaming/Cycling '74/Max 8/Settings/Cache",
				"patcherrelativepath" : "../../../../AppData/Roaming/Cycling '74/Max 8/Settings/Cache",
				"type" : "AIFF",
				"implicit" : 1
			}
, 			{
				"name" : "BONK.mp3.aif",
				"bootpath" : "~/AppData/Roaming/Cycling '74/Max 8/Settings/Cache",
				"patcherrelativepath" : "../../../../AppData/Roaming/Cycling '74/Max 8/Settings/Cache",
				"type" : "AIFF",
				"implicit" : 1
			}
, 			{
				"name" : "BARK.mp3.aif",
				"bootpath" : "~/AppData/Roaming/Cycling '74/Max 8/Settings/Cache",
				"patcherrelativepath" : "../../../../AppData/Roaming/Cycling '74/Max 8/Settings/Cache",
				"type" : "AIFF",
				"implicit" : 1
			}
 ],
		"autosave" : 0
	}

}
